:SAMPLES-PER-SECOND 30
:FULLY-SPECIFIED
:DEGREES
132
root  -42.3661 40.5151 -9.20035 8.9736 -87.0823 -6.95155
RightUpLeg  -9.86474 -10.8062 -12.2511
RightLeg  9.05242 6.72236 1.62451
RightFoot  -0.953357 -1.05856 11.547
RightToes  5.82063e-011 0 -3.6325e-017
Spine  15.3275 0.355852 -8.35857
Spine1  10.1908 -0.597292 0.173952
HEad  -35.0764 -14.7874 14.0182
LeftShoulder1  6.78204 -11.3519 -39.4311
LeftArm  -35.4538 -6.27729 -21.0204
LeftForeArm  37.1714 -58.921 -15.3025
LeftHand  -0.244104 0.0205437 5.32207
RightShoulder  6.15852 10.3233 38.4779
RightArm  -15.0524 -9.16036 40.1962
RightForeArm  25.8001 -2.287 2.84493
RightHand  -0.661886 -0.0754401 -14.6099
LeftUpLeg  -15.7082 5.83581 -1.32561
LeftLeg  10.4878 22.2142 -2.8494
LeftFoot  1.50019 -1.22774 10.7937
LeftToes  -1.33699e-010 -8.10125e-011 -3.35536e-011
133
root  -42.2635 40.5157 -9.20326 9.26723 -86.4931 -7.70485
RightUpLeg  -9.26088 -12.1751 -11.9216
RightLeg  13.4572 4.28496 1.30586
RightFoot  -3.48123 -0.845754 11.907
RightToes  5.82063e-011 0 -3.6325e-017
Spine  15.1572 0.140068 -7.68011
Spine1  10.365 -0.817185 0.332083
HEad  -34.6114 -15.0391 14.0492
LeftShoulder1  6.53679 -11.1173 -38.5287
LeftArm  -33.6369 -6.45746 -22.2294
LeftForeArm  40.8358 -63.1048 -18.2674
LeftHand  -0.244104 0.0205437 5.32207
RightShoulder  6.29966 10.3259 39.4456
RightArm  -17.0446 -15.5543 39.9088
RightForeArm  25.2366 0.714854 2.38582
RightHand  -0.543921 -1.07884 -14.5763
LeftUpLeg  -15.4352 6.05474 -1.31172
LeftLeg  10.4545 21.3541 -2.98595
LeftFoot  1.8924 -1.29977 11.0668
LeftToes  -1.33699e-010 -8.10125e-011 -3.35536e-011
134
root  -42.1639 40.5347 -9.23305 6.17447 -85.6882 -5.07451
RightUpLeg  -8.14251 -11.7053 -11.9052
RightLeg  18.4698 2.49595 0.690919
RightFoot  -5.39059 -0.636955 11.5006
RightToes  5.82063e-011 0 -3.6325e-017
Spine  14.4907 -0.251273 -8.32861
Spine1  10.8487 -1.72953 1.77074
HEad  -33.2339 -14.4961 14.0572
LeftShoulder1  6.30922 -10.6978 -38.2608
LeftArm  -31.8361 -4.74287 -23.6365
LeftForeArm  43.8783 -66.7323 -21.7884
LeftHand  -0.244104 0.0205437 5.32207
RightShoulder  6.08348 9.90499 39.2654
RightArm  -15.2961 -20.9735 39.2563
RightForeArm  16.9818 6.02826 4.22333
RightHand  -0.637591 -0.158617 -14.1979
LeftUpLeg  -14.8284 5.85026 -1.38363
LeftLeg  9.75052 20.7112 -3.41769
LeftFoot  2.55912 -1.40005 11.3176
LeftToes  -1.33699e-010 -8.10125e-011 -3.35536e-011
135
root  -42.0399 40.5518 -9.27961 2.8013 -85.1631 -2.16646
RightUpLeg  -6.78563 -9.61626 -12.0916
RightLeg  23.4425 0.453665 -6.63067e-005
RightFoot  -6.49228 -0.501389 10.7721
RightToes  5.82063e-011 0 -3.6325e-017
Spine  13.6329 -0.596975 -9.13116
Spine1  11.2033 -2.58874 3.2223
HEad  -31.3601 -14.1972 13.6967
LeftShoulder1  6.35857 -10.5627 -38.9983
LeftArm  -30.2163 -1.64818 -24.6284
LeftForeArm  46.4288 -69.1048 -24.7568
LeftHand  -0.244104 0.0205437 5.32207
RightShoulder  5.72563 9.42297 38.2394
RightArm  -11.6297 -24.5206 38.6822
RightForeArm  12.3247 10.4461 5.81284
RightHand  -0.683258 0.767047 -12.9584
LeftUpLeg  -14.089 5.58009 -1.41901
LeftLeg  8.77729 20.3772 -3.99938
LeftFoot  3.28437 -1.48421 11.3696
LeftToes  -1.33699e-010 -8.10125e-011 -3.35536e-011
136
root  -41.8651 40.5589 -9.33537 -0.862793 -85.2398 1.01898
RightUpLeg  -5.47724 -7.93379 -12.2758
RightLeg  28.0883 -1.12799 -0.87922
RightFoot  -7.20167 -0.424257 10.3581
RightToes  5.82063e-011 0 -3.6325e-017
Spine  12.9376 -0.732828 -8.87134
Spine1  11.182 -2.64653 3.15665
HEad  -29.9301 -14.5305 13.4138
LeftShoulder1  6.57062 -10.7497 -39.851
LeftArm  -28.5805 1.62819 -25.6021
LeftForeArm  47.3208 -69.2689 -24.9157
LeftHand  -0.244104 0.0205437 5.32207
RightShoulder  5.47578 9.0918 37.4519
RightArm  -7.4308 -26.5692 38.6043
RightForeArm  12.4409 13.7074 5.89633
RightHand  -0.695952 0.902162 -12.9319
LeftUpLeg  -13.4061 5.29092 -1.43718
LeftLeg  7.82106 20.6006 -4.46775
LeftFoot  3.99772 -1.56035 11.365
LeftToes  -1.33699e-010 -8.10125e-011 -3.35536e-011
137
root  -41.6233 40.557 -9.40721 -5.37889 -85.8591 4.99516
RightUpLeg  -4.1542 -6.81218 -12.4907
RightLeg  32.0594 -2.27179 -1.77204
RightFoot  -7.77263 -0.371875 10.2112
RightToes  5.82063e-011 0 -3.6325e-017
Spine  12.6401 -0.677268 -7.82734
Spine1  10.8627 -2.12379 2.04397
HEad  -29.2974 -14.5024 13.2179
LeftShoulder1  6.73483 -10.9203 -40.4134
LeftArm  -26.9355 4.57966 -26.7898
LeftForeArm  46.2292 -67.0829 -21.9333
LeftHand  -0.244104 0.0205437 5.32207
RightShoulder  5.36295 8.8742 37.3083
RightArm  -4.56781 -26.7316 38.4699
RightForeArm  14.4222 15.0744 5.668
RightHand  -0.747853 0.87605 -13.9465
LeftUpLeg  -12.8215 5.12229 -1.43125
LeftLeg  7.00495 21.33 -4.74313
LeftFoot  4.72852 -1.6552 11.479
LeftToes  -1.33699e-010 -8.10125e-011 -3.35536e-011
138
root  -41.3009 40.5433 -9.50963 -10.1536 -86.7901 9.22202
RightUpLeg  -2.79676 -5.92886 -12.5493
RightLeg  34.9682 -3.07182 -2.55897
RightFoot  -8.33115 -0.322777 10.0997
RightToes  5.82063e-011 0 -3.6325e-017
Spine  12.5665 -0.576116 -6.91654
Spine1  10.6315 -1.69188 1.31163
HEad  -29.0763 -13.1831 12.5669
LeftShoulder1  6.82769 -10.8934 -41.1014
LeftArm  -25.5565 7.23234 -27.9358
LeftForeArm  44.2155 -62.768 -17.6
LeftHand  -0.244104 0.0205437 5.32207
RightShoulder  5.31308 8.69281 37.5352
RightArm  -3.55353 -24.2072 37.7522
RightForeArm  16.9676 13.6517 6.08713
RightHand  -0.732553 0.797561 -13.8187
LeftUpLeg  -12.4086 5.36219 -1.23134
LeftLeg  6.36609 22.0787 -5.01174
LeftFoot  5.46237 -1.75024 11.5819
LeftToes  -1.33699e-010 -8.10125e-011 -3.35536e-011
139
root  -40.8894 40.5129 -9.65208 -21.9415 -87.9322 20.5748
RightUpLeg  -1.59421 -5.01175 -12.3244
RightLeg  36.685 -3.61609 -3.14715
RightFoot  -8.94837 -0.268782 9.91789
RightToes  5.82063e-011 0 -3.6325e-017
Spine  12.3569 -0.441299 -6.30842
Spine1  10.7201 -1.43937 1.2382
HEad  -28.8457 -10.9969 11.299
LeftShoulder1  6.98986 -10.8918 -42.1554
LeftArm  -24.2964 9.38704 -28.749
LeftForeArm  41.489 -55.9525 -13.1124
LeftHand  -0.244104 0.0205437 5.32207
RightShoulder  5.30368 8.58402 37.8379
RightArm  -4.67621 -19.5356 36.8966
RightForeArm  20.6782 10.4685 6.58479
RightHand  -0.656031 0.583649 -12.8339
LeftUpLeg  -12.261 5.93422 -0.753134
LeftLeg  5.79014 22.6467 -5.41001
LeftFoot  6.21661 -1.83268 11.5786
LeftToes  -1.33699e-010 -8.10125e-011 -3.35536e-011
